{
  "source": "C:\\Users\\Peter\\Desktop\\stuff\\MIUN\\quantitative_research\\video_compression\\videos\\BVI-HD\\BVI-HD_CDVL_videos\\ORIG\\Boxing_1920x1080_30fps.mp4",
  "output": "C:\\Users\\Peter\\Desktop\\stuff\\MIUN\\quantitative_research\\video_compression\\compressed_videos\\BVI-HD\\h264\\8\\Boxing_1920x1080_30fps_h264.mp4",
  "codec": "h264",
  "ok": "Input #0, mov,mp4,m4a,3gp,3g2,mj2, from 'C:\\Users\\Peter\\Desktop\\stuff\\MIUN\\quantitative_research\\video_compression\\videos\\BVI-HD\\BVI-HD_CDVL_videos\\ORIG\\Boxing_1920x1080_30fps.mp4':\n  Metadata:\n    major_brand     : isom\n    minor_version   : 512\n    compatible_brands: isomiso2avc1mp41\n    encoder         : Lavf54.28.101\n  Duration: 00:00:05.00, start: 0.000000, bitrate: 238363 kb/s\n  Stream #0:0[0x1](und): Video: h264 (High 4:4:4 Predictive) (avc1 / 0x31637661), yuv420p(progressive), 1920x1080, 238359 kb/s, 30 fps, 30 tbr, 30 tbn (default)\n    Metadata:\n      handler_name    : VideoHandler\n      vendor_id       : [0][0][0][0]\n[out#0/mp4 @ 000002ae7372c4c0] Codec AVOption b:a (set bitrate (in bits/s)) has not been used for any stream. The most likely reason is either wrong type (e.g. a video option with no video streams) or that it is a private option of some decoder which was not actually used for any stream.\nStream mapping:\n  Stream #0:0 -> #0:0 (h264 (native) -> h264 (libx264))\nPress [q] to stop, [?] for help\n[libx264 @ 000002ae7409bb80] using cpu capabilities: MMX2 SSE2Fast SSSE3 SSE4.2 AVX FMA3 BMI2 AVX2\n[libx264 @ 000002ae7409bb80] profile High, level 5.0, 4:2:0, 8-bit\n[libx264 @ 000002ae7409bb80] 264 - core 165 r3222 b35605a - H.264/MPEG-4 AVC codec - Copyleft 2003-2025 - http://www.videolan.org/x264.html - options: cabac=1 ref=5 deblock=1:0:0 analyse=0x3:0x113 me=hex subme=8 psy=1 psy_rd=1.00:0.00 mixed_ref=1 me_range=16 chroma_me=1 trellis=2 8x8dct=1 cqm=0 deadzone=21,11 fast_pskip=1 chroma_qp_offset=-2 threads=18 lookahead_threads=3 sliced_threads=0 nr=0 decimate=1 interlaced=0 bluray_compat=0 constrained_intra=0 bframes=3 b_pyramid=2 b_adapt=1 b_bias=0 direct=3 weightb=1 open_gop=0 weightp=2 keyint=250 keyint_min=25 scenecut=40 intra_refresh=0 rc_lookahead=50 rc=cbr mbtree=1 bitrate=8000 ratetol=1.0 qcomp=0.60 qpmin=0 qpmax=69 qpstep=4 vbv_maxrate=8000 vbv_bufsize=8000 nal_hrd=none filler=0 ip_ratio=1.40 aq=1:1.00\nOutput #0, mp4, to 'C:\\Users\\Peter\\Desktop\\stuff\\MIUN\\quantitative_research\\video_compression\\compressed_videos\\BVI-HD\\h264\\8\\Boxing_1920x1080_30fps_h264.mp4':\n  Metadata:\n    major_brand     : isom\n    minor_version   : 512\n    compatible_brands: isomiso2avc1mp41\n    encoder         : Lavf62.3.100\n  Stream #0:0(und): Video: h264 (avc1 / 0x31637661), yuv420p(tv, progressive), 1920x1080, q=2-31, 8000 kb/s, 30 fps, 15360 tbn (default)\n    Metadata:\n      encoder         : Lavc62.11.100 libx264\n      handler_name    : VideoHandler\n      vendor_id       : [0][0][0][0]\n    Side data:\n      cpb: bitrate max/min/avg: 8000000/0/8000000 buffer size: 8000000 vbv_delay: N/A\nframe=    0 fps=0.0 q=0.0 size=       0KiB time=N/A bitrate=N/A speed=N/A elapsed=0:00:00.50    \nframe=    0 fps=0.0 q=0.0 size=       0KiB time=N/A bitrate=N/A speed=N/A elapsed=0:00:01.06    \nframe=    0 fps=0.0 q=0.0 size=       0KiB time=N/A bitrate=N/A speed=N/A elapsed=0:00:01.62    \nframe=   10 fps=4.5 q=27.0 size=     256KiB time=00:00:00.26 bitrate=7865.8kbits/s speed=0.119x elapsed=0:00:02.23    \nframe=   28 fps= 10 q=26.0 size=     512KiB time=00:00:00.83 bitrate=5033.6kbits/s speed=0.298x elapsed=0:00:02.80    \nframe=   42 fps= 12 q=26.0 size=     768KiB time=00:00:01.33 bitrate=4718.9kbits/s speed=0.395x elapsed=0:00:03.37    \nframe=   59 fps= 15 q=26.0 size=    1536KiB time=00:00:01.90 bitrate=6622.8kbits/s speed=0.481x elapsed=0:00:03.94    \nframe=   67 fps= 15 q=26.0 size=    1792KiB time=00:00:02.03 bitrate=7219.9kbits/s speed=0.453x elapsed=0:00:04.48    \nframe=   80 fps= 16 q=26.0 size=    2048KiB time=00:00:02.60 bitrate=6452.9kbits/s speed=0.515x elapsed=0:00:05.05    \nframe=   99 fps= 18 q=27.0 size=    2816KiB time=00:00:03.23 bitrate=7134.8kbits/s speed=0.577x elapsed=0:00:05.60    \nframe=  119 fps= 19 q=27.0 size=    3584KiB time=00:00:03.90 bitrate=7528.3kbits/s speed=0.636x elapsed=0:00:06.12    \nframe=  123 fps= 18 q=27.0 size=    3584KiB time=00:00:04.03 bitrate=7279.5kbits/s speed=0.606x elapsed=0:00:06.65    \nframe=  139 fps= 19 q=-1.0 size=    4096KiB time=00:00:04.56 bitrate=7347.8kbits/s speed=0.637x elapsed=0:00:07.16    \n[mp4 @ 000002ae742a4a00] Starting second pass: moving the moov atom to the beginning of the file\n[out#0/mp4 @ 000002ae7372c4c0] video:4630KiB audio:0KiB subtitle:0KiB other streams:0KiB global headers:0KiB muxing overhead: 0.056250%\nframe=  150 fps= 20 q=-1.0 Lsize=    4633KiB time=00:00:04.93 bitrate=7692.9kbits/s speed=0.66x elapsed=0:00:07.47    \n[libx264 @ 000002ae7409bb80] frame I:1     Avg QP:23.86  size: 89554\n[libx264 @ 000002ae7409bb80] frame P:40    Avg QP:23.82  size: 53619\n[libx264 @ 000002ae7409bb80] frame B:109   Avg QP:25.29  size: 22993\n[libx264 @ 000002ae7409bb80] consecutive B-frames:  0.7%  2.7% 14.0% 82.7%\n[libx264 @ 000002ae7409bb80] mb I  I16..4: 21.4% 72.0%  6.6%\n[libx264 @ 000002ae7409bb80] mb P  I16..4:  4.0% 18.2%  2.1%  P16..4: 44.2% 10.2%  5.1%  0.0%  0.0%    skip:16.1%\n[libx264 @ 000002ae7409bb80] mb B  I16..4:  1.2%  6.8%  0.9%  B16..8: 36.0%  5.3%  0.8%  direct: 3.9%  skip:45.1%  L0:46.2% L1:49.2% BI: 4.6%\n[libx264 @ 000002ae7409bb80] 8x8 transform intra:75.4% inter:83.1%\n[libx264 @ 000002ae7409bb80] direct mvs  spatial:91.7% temporal:8.3%\n[libx264 @ 000002ae7409bb80] coded y,uvDC,uvAC intra: 65.6% 68.8% 26.0% inter: 17.4% 21.8% 0.7%\n[libx264 @ 000002ae7409bb80] i16 v,h,dc,p: 15% 14%  3% 67%\n[libx264 @ 000002ae7409bb80] i8 v,h,dc,ddl,ddr,vr,hd,vl,hu: 15% 10%  7%  9% 13% 13% 12% 11% 10%\n[libx264 @ 000002ae7409bb80] i4 v,h,dc,ddl,ddr,vr,hd,vl,hu: 15% 10%  9%  9% 15% 13% 12%  9%  8%\n[libx264 @ 000002ae7409bb80] i8c dc,h,v,p: 39% 23% 22% 17%\n[libx264 @ 000002ae7409bb80] Weighted P-Frames: Y:7.5% UV:7.5%\n[libx264 @ 000002ae7409bb80] ref P L0: 47.1% 13.6% 21.4%  8.2%  9.1%  0.5%\n[libx264 @ 000002ae7409bb80] ref B L0: 75.5% 15.8%  6.7%  2.1%\n[libx264 @ 000002ae7409bb80] ref B L1: 94.3%  5.7%\n[libx264 @ 000002ae7409bb80] kb/s:7584.87\n",
  "seconds": 7.727569103240967,
  "probe_out": {}
}